<svg xmlns="http://www.w3.org/2000/svg" width="48" height="48" viewBox="0 0 48 48"><g class="nc-icon-wrapper"><path d="M20.705 43.4C15.594 43.4 10.474 40.675 8.89798 39.1C6.47298 36.676 1.32098 25.851 7.58598 19.586L19.586 7.58601C25.85 1.32101 36.677 6.47201 39.1 8.90001C41.523 11.328 46.677 22.151 40.412 28.416L28.412 40.416C26.356 42.418 23.573 43.496 20.705 43.4ZM27.289 8.61401C25.487 8.52901 23.728 9.17901 22.414 10.414L10.414 22.414C6.24698 26.581 10.445 34.992 11.727 36.273C13.009 37.554 21.417 41.753 25.586 37.586L37.586 25.586C41.753 21.419 37.555 13.008 36.273 11.727C33.655 9.81701 30.527 8.73301 27.289 8.61401Z" fill="url(#nc-ui-1-0_linear_43_232)"></path><path d="M4 46C2.895 46 2 45.104 2 44C2 43.47 2.211 42.961 2.586 42.586L16.586 28.586C17.381 27.819 18.647 27.841 19.414 28.635C20.163 29.41 20.163 30.639 19.414 31.414L5.414 45.414C5.04 45.79 4.531 46.001 4 46Z" fill="url(#nc-ui-1-1_linear_43_232)"></path><path d="M30 20C28.895 20 28 19.104 28 18C28 17.47 28.211 16.961 28.586 16.586L42.586 2.58602C43.381 1.81902 44.647 1.84102 45.414 2.63502C46.163 3.41002 46.163 4.63902 45.414 5.41402L31.414 19.414C31.04 19.79 30.531 20.001 30 20Z" fill="url(#nc-ui-1-2_linear_43_232)"></path><path d="M27 36C27 40.971 31.029 45 36 45C40.971 45 45 40.971 45 36C45 31.029 40.971 27 36 27C31.029 27 27 31.029 27 36Z" fill="url(#nc-ui-1-3_linear_43_232)"></path><path d="M37 31V35H41C41.552 35 42 35.448 42 36C42 36.552 41.552 37 41 37H37V41C37 41.552 36.552 42 36 42C35.448 42 35 41.552 35 41V37H31C30.448 37 30 36.552 30 36C30 35.448 30.448 35 31 35H35V31C35 30.448 35.448 30 36 30C36.552 30 37 30.448 37 31Z" fill="url(#nc-ui-1-4_linear_43_232)"></path><defs><linearGradient id="nc-ui-1-0_linear_43_232" x1="23.9987" y1="4.59692" x2="23.9987" y2="43.4059" gradientUnits="userSpaceOnUse"><stop stop-color="#C2C3CD"></stop><stop offset="1" stop-color="#A2A3B4"></stop></linearGradient><linearGradient id="nc-ui-1-1_linear_43_232" x1="10.9879" y1="28.0248" x2="10.9879" y2="46" gradientUnits="userSpaceOnUse"><stop stop-color="#E0E0E6"></stop><stop offset="1" stop-color="#C2C3CD"></stop></linearGradient><linearGradient id="nc-ui-1-2_linear_43_232" x1="36.9879" y1="2.02484" x2="36.9879" y2="20" gradientUnits="userSpaceOnUse"><stop stop-color="#E0E0E6"></stop><stop offset="1" stop-color="#C2C3CD"></stop></linearGradient><linearGradient id="nc-ui-1-3_linear_43_232" x1="36" y1="27" x2="36" y2="45" gradientUnits="userSpaceOnUse"><stop stop-color="#5B5E71"></stop><stop offset="1" stop-color="#393A46"></stop></linearGradient><linearGradient id="nc-ui-1-4_linear_43_232" x1="36" y1="30" x2="36" y2="42" gradientUnits="userSpaceOnUse"><stop stop-color="white"></stop><stop offset="1" stop-color="#E0E0E6"></stop></linearGradient></defs></g></svg>