<svg xmlns="http://www.w3.org/2000/svg" width="48" height="48" viewBox="0 0 48 48"><g class="nc-icon-wrapper"><path d="M44 9H14V37H25.7L37.448 44.832C37.909 45.137 38.529 45.011 38.834 44.55C38.942 44.387 39 44.196 39 44V37H44C45.657 37 47 35.657 47 34V12C47 10.343 45.657 9 44 9Z" fill="url(#nc-ui-6-0_linear_215_178)"></path> <path d="M36 3H4C2.343 3 1 4.343 1 6V27C1 28.657 2.343 30 4 30H9V39C9 39.552 9.448 40 10 40C10.208 40 10.412 39.935 10.581 39.814L24.32 30H36C37.657 30 39 28.657 39 27V6C39 4.343 37.657 3 36 3Z" fill="url(#nc-ui-6-1_linear_215_178)"></path> <defs> <linearGradient id="nc-ui-6-0_linear_215_178" x1="30.5" y1="9" x2="30.5" y2="44.9984" gradientUnits="userSpaceOnUse"> <stop stop-color="#60BEF6"></stop> <stop offset="1" stop-color="#29A0EA"></stop> </linearGradient> <linearGradient id="nc-ui-6-1_linear_215_178" x1="20" y1="3" x2="20" y2="40" gradientUnits="userSpaceOnUse"> <stop stop-color="#DEF2FD"></stop> <stop offset="1" stop-color="#9ED9FA"></stop> </linearGradient> </defs></g></svg>