<svg xmlns="http://www.w3.org/2000/svg" width="48" height="48" viewBox="0 0 48 48"><g class="nc-icon-wrapper"><path d="M42 5H6C3.239 5 1 7.239 1 10V38C1 40.761 3.239 43 6 43H42C44.761 43 47 40.761 47 38V10C47 7.239 44.761 5 42 5Z" fill="url(#nc-ui-5-0_linear_207_31)"></path> <path d="M41.662 11.75L24.662 26.75C24.284 27.084 23.716 27.084 23.338 26.75L6.33798 11.75C5.92398 11.384 5.88398 10.752 6.24998 10.338C6.61598 9.92398 7.24798 9.88398 7.66198 10.25L24 24.666L40.338 10.25C40.752 9.88398 41.384 9.92398 41.75 10.338C42.116 10.752 42.076 11.384 41.662 11.75Z" fill="url(#nc-ui-5-1_linear_207_31)"></path> <defs> <linearGradient id="nc-ui-5-0_linear_207_31" x1="24" y1="5" x2="24" y2="43" gradientUnits="userSpaceOnUse"> <stop stop-color="#E0E0E6"></stop> <stop offset="1" stop-color="#C2C3CD"></stop> </linearGradient> <linearGradient id="nc-ui-5-1_linear_207_31" x1="24" y1="9.99951" x2="24" y2="27.0005" gradientUnits="userSpaceOnUse"> <stop stop-color="#C2C3CD"></stop> <stop offset="1" stop-color="#A2A3B4"></stop> </linearGradient> </defs></g></svg>