<svg xmlns="http://www.w3.org/2000/svg" width="48" height="48" viewBox="0 0 48 48"><g class="nc-icon-wrapper"><path d="M21.222,12.636,35.364,26.778a1,1,0,0,0,1.414,0l4-4A11.01,11.01,0,0,0,41.45,7.965l5.257-5.258a1,1,0,1,0-1.414-1.414L40.035,6.55a11,11,0,0,0-14.813.672l-4,4A1,1,0,0,0,21.222,12.636Z" fill="#444"></path><rect x="31" y="5" width="2" height="22" transform="translate(-1.941 27.314) rotate(-45)" fill="#666"></rect><path d="M41.451,7.963l5.256-5.256a1,1,0,1,0-1.414-1.414L40.037,6.549A10.982,10.982,0,0,1,41.451,7.963Z" fill="#444"></path><path d="M26.778,35.364,12.636,21.222a1,1,0,0,0-1.414,0l-4,4A11.01,11.01,0,0,0,6.55,40.035L1.293,45.293a1,1,0,1,0,1.414,1.414L7.965,41.45a11,11,0,0,0,14.813-.672l4-4A1,1,0,0,0,26.778,35.364Z" fill="#e6e6e6"></path><rect x="15" y="21" width="2" height="22" transform="translate(-17.941 20.686) rotate(-45)" fill="#b3b3b3"></rect><path d="M6.549,40.037,1.293,45.293a1,1,0,1,0,1.414,1.414l5.256-5.256A10.982,10.982,0,0,1,6.549,40.037Z" fill="#444"></path><path d="M15.646,24.232l2.086,2.086,2.757-2.757a1.5,1.5,0,0,0-2.121-2.122l-2.732,2.733Z" fill="#b3b3b3"></path><path d="M26.489,29.561a1.5,1.5,0,0,0-2.121-2.122L21.611,30.2l2.121,2.121Z" fill="#b3b3b3"></path></g></svg>