<svg xmlns="http://www.w3.org/2000/svg" width="48" height="48" viewBox="0 0 48 48"><g class="nc-icon-wrapper"><path d="M34 35C33.744 35 33.488 34.902 33.293 34.707L28.293 29.707C27.902 29.316 27.902 28.684 28.293 28.293C28.684 27.902 29.316 27.902 29.707 28.293L34.707 33.293C35.098 33.684 35.098 34.316 34.707 34.707C34.512 34.902 34.256 35 34 35Z" fill="#203B50"></path> <path d="M36.268 32.732C35.292 31.756 33.708 31.756 32.732 32.732C31.756 33.708 31.756 35.292 32.732 36.268L41.732 45.268C42.708 46.244 44.292 46.244 45.268 45.268C46.244 44.292 46.244 42.708 45.268 41.732L36.268 32.732Z" fill="url(#nc-ui-2-0_linear_103_96)"></path> <path d="M19 35C27.8366 35 35 27.8366 35 19C35 10.1634 27.8366 3 19 3C10.1634 3 3 10.1634 3 19C3 27.8366 10.1634 35 19 35Z" fill="url(#nc-ui-2-1_linear_103_96)"></path> <path d="M19 2C9.611 2 2 9.611 2 19C2 28.389 9.611 36 19 36C28.389 36 36 28.389 36 19C35.99 9.615 28.385 2.01 19 2ZM19 34C10.716 34 4 27.284 4 19C4 10.716 10.716 4 19 4C27.284 4 34 10.716 34 19C33.991 27.28 27.28 33.991 19 34Z" fill="url(#nc-ui-2-2_linear_103_96)"></path> <defs> <linearGradient id="nc-ui-2-0_linear_103_96" x1="39" y1="32" x2="39" y2="46" gradientUnits="userSpaceOnUse"> <stop stop-color="#32597C"></stop> <stop offset="1" stop-color="#203B50"></stop> </linearGradient> <linearGradient id="nc-ui-2-1_linear_103_96" x1="19" y1="3" x2="19" y2="35" gradientUnits="userSpaceOnUse"> <stop stop-color="#DEF2FD"></stop> <stop offset="1" stop-color="#9ED9FA"></stop> </linearGradient> <linearGradient id="nc-ui-2-2_linear_103_96" x1="19" y1="2" x2="19" y2="36" gradientUnits="userSpaceOnUse"> <stop stop-color="#80B0CB"></stop> <stop offset="1" stop-color="#4480A7"></stop> </linearGradient> </defs></g></svg>